<svg width="85" height="86" viewBox="0 0 85 86" fill="none" xmlns="http://www.w3.org/2000/svg">
<g clip-path="url(#clip0_102_1189)">
<path d="M42.25 0.5C65.6845 0.5 84.75 19.5655 84.75 43C84.75 53.2637 81.0922 62.6888 75.0118 70.0413C74.9963 70.0626 74.9948 70.0895 74.9778 70.1093C70.5876 75.4034 65.0739 79.4622 58.9298 82.0844C58.859 82.1142 58.7896 82.1467 58.7188 82.1765C58.2215 82.3862 57.7186 82.5803 57.2143 82.7701C57.0159 82.8452 56.8176 82.9217 56.6164 82.9939C56.1815 83.1497 55.7438 83.2971 55.3032 83.4387C55.0213 83.5294 54.7393 83.6187 54.4546 83.7037C54.065 83.8198 53.674 83.9317 53.2802 84.038C52.9345 84.1315 52.586 84.2179 52.2375 84.3015C51.8847 84.3865 51.5306 84.4715 51.175 84.5466C50.7783 84.6316 50.3774 84.7067 49.9751 84.7803C49.6521 84.8398 49.3305 84.9022 49.0047 84.9546C48.5584 85.0268 48.1093 85.0835 47.6588 85.1416C47.3684 85.1784 47.0794 85.2209 46.7876 85.2521C46.2776 85.3059 45.7633 85.3442 45.2477 85.3796C45.0083 85.3966 44.7703 85.4221 44.5294 85.4348C43.7772 85.4773 43.0164 85.5 42.25 85.5C41.4836 85.5 40.7228 85.4773 39.9678 85.4377C39.7269 85.4249 39.4889 85.3994 39.2495 85.3824C38.7338 85.3456 38.2196 85.3087 37.7096 85.2549C37.4177 85.2237 37.1288 85.1812 36.8383 85.1444C36.3878 85.0863 35.9388 85.0297 35.4925 84.9574C35.1681 84.905 34.8451 84.8427 34.5221 84.7832C34.1212 84.7095 33.7203 84.6344 33.3222 84.5494C32.9666 84.4729 32.6138 84.3893 32.2597 84.3043C31.9112 84.2193 31.5627 84.1329 31.217 84.0408C30.8232 83.936 30.4322 83.8227 30.0426 83.7065C29.7578 83.6215 29.4759 83.5322 29.194 83.4416C28.7534 83.2999 28.3157 83.1526 27.8807 82.9968C27.681 82.9245 27.4827 82.848 27.2829 82.7729C26.7772 82.5831 26.2757 82.3876 25.7784 82.1793C25.7076 82.1496 25.6382 82.117 25.5673 82.0872C19.4247 79.465 13.9096 75.4062 9.51934 70.1122C9.50234 70.0923 9.50092 70.064 9.48534 70.0442C3.40784 62.6888 -0.249998 53.2637 -0.249998 43C-0.249998 19.5655 18.8155 0.5 42.25 0.5ZM25.0276 78.7283C25.0488 78.7382 25.0687 78.7496 25.0899 78.7595C25.5957 79.0032 26.1099 79.2327 26.6284 79.4565C26.746 79.5061 26.8622 79.5571 26.9798 79.6067C27.4331 79.7965 27.8921 79.9764 28.3539 80.1492C28.5466 80.2215 28.7392 80.2923 28.9333 80.3603C29.3427 80.5063 29.7536 80.6465 30.1687 80.7797C30.4265 80.8618 30.6858 80.9397 30.945 81.0162C31.3133 81.1267 31.6831 81.233 32.0571 81.3322C32.3716 81.4157 32.6889 81.4922 33.0062 81.5673C33.3392 81.6467 33.6707 81.7274 34.0064 81.7982C34.3733 81.8762 34.7431 81.9427 35.1114 82.0093C35.4103 82.0646 35.7078 82.1227 36.0096 82.1708C36.4247 82.236 36.844 82.2884 37.2619 82.3408C37.5268 82.3748 37.7903 82.4145 38.0581 82.4428C38.5355 82.4938 39.0172 82.5264 39.4974 82.5604C39.7113 82.5746 39.9238 82.5987 40.1406 82.61C40.8418 82.6468 41.5445 82.6667 42.25 82.6667C42.9555 82.6667 43.6582 82.6468 44.358 82.61C44.5733 82.5987 44.7858 82.576 45.0012 82.5604C45.4828 82.5278 45.9631 82.4938 46.4405 82.4428C46.7083 82.4145 46.9718 82.3748 47.2367 82.3408C47.6546 82.2884 48.0739 82.236 48.489 82.1708C48.7908 82.1227 49.0883 82.0646 49.3872 82.0093C49.7569 81.9427 50.1267 81.8747 50.4922 81.7982C50.8279 81.7274 51.1608 81.6467 51.4923 81.5673C51.8097 81.4908 52.127 81.4157 52.4415 81.3322C52.8141 81.233 53.1853 81.1253 53.5536 81.0162C53.8128 80.9397 54.0721 80.8618 54.3299 80.7797C54.745 80.6465 55.1573 80.5063 55.5653 80.3603C55.7593 80.2909 55.952 80.2201 56.1447 80.1492C56.6065 79.9764 57.0655 79.7965 57.5188 79.6067C57.6364 79.5585 57.7512 79.5075 57.8688 79.4579C58.3873 79.2355 58.9015 79.0046 59.4087 78.7609C59.4299 78.751 59.4498 78.7411 59.471 78.7297C64.4138 76.3384 68.7799 72.9441 72.323 68.8216C69.5846 58.7378 61.8326 50.6089 51.8593 47.3747C51.6623 47.4951 51.4569 47.6027 51.2543 47.7161C51.1353 47.7827 51.0178 47.8535 50.8973 47.9172C50.4752 48.1411 50.0473 48.3507 49.6096 48.5392C49.2738 48.6865 48.9268 48.8112 48.5811 48.9387C48.5131 48.9628 48.4451 48.9897 48.3771 49.0137C46.4561 49.6937 44.4005 50.0833 42.25 50.0833C40.0995 50.0833 38.0439 49.6937 36.1243 49.0137C36.0563 48.9897 35.9883 48.9628 35.9203 48.9387C35.5747 48.8112 35.2276 48.6865 34.8918 48.5392C34.4541 48.3507 34.0263 48.1411 33.6041 47.9172C33.4837 47.8521 33.3661 47.7827 33.2471 47.7161C33.0445 47.6027 32.8377 47.4951 32.6393 47.3733C22.666 50.6089 14.9154 58.7378 12.1756 68.8202C15.7187 72.9413 20.0848 76.3356 25.0276 78.7283ZM57.8333 31.6667C57.8333 23.0746 50.8421 16.0833 42.25 16.0833C33.6579 16.0833 26.6667 23.0746 26.6667 31.6667C26.6667 37.1322 29.5014 41.9417 33.7727 44.7241C34.3308 45.0867 34.9117 45.4112 35.5081 45.6945C35.5789 45.7285 35.6483 45.7639 35.7192 45.7965C39.8218 47.6623 44.6782 47.6623 48.7808 45.7965C48.8517 45.7639 48.9225 45.7285 48.9919 45.6945C49.5898 45.4112 50.1692 45.0867 50.7273 44.7241C54.9986 41.9417 57.8333 37.1322 57.8333 31.6667ZM10.0506 66.1243C13.2622 56.6411 20.5892 48.9769 29.9505 45.3361C26.2063 41.963 23.8333 37.0925 23.8333 31.6667C23.8333 21.512 32.0953 13.25 42.25 13.25C52.4047 13.25 60.6667 21.512 60.6667 31.6667C60.6667 37.0925 58.2938 41.963 54.5481 45.3361C63.9094 48.9783 71.2364 56.6411 74.448 66.1243C79.1414 59.609 81.9167 51.6247 81.9167 43C81.9167 21.1281 64.1219 3.33333 42.25 3.33333C20.3781 3.33333 2.58334 21.1281 2.58334 43C2.58334 51.6247 5.35859 59.609 10.0506 66.1243Z" fill="black"/>
</g>
<defs>
<clipPath id="clip0_102_1189">
<rect width="85" height="85" fill="white" transform="matrix(-1 0 0 1 85 0.5)"/>
</clipPath>
</defs>
</svg>
