<svg width="89" height="84" viewBox="0 0 89 84" fill="none" xmlns="http://www.w3.org/2000/svg">
<g clip-path="url(#clip0_102_1193)">
<path d="M1.27725 18.755L43.9021 0.123765C44.28 -0.0412548 44.72 -0.0412548 45.0977 0.123765L87.7227 18.755C88.198 18.9627 88.5 19.3985 88.5 19.8763V65.1236C88.5 65.6014 88.198 66.0372 87.7227 66.2449L45.0979 84.8761C44.9091 84.9587 44.7044 85 44.5 85C44.2956 85 44.0911 84.9587 43.9021 84.8761L1.27725 66.2449C0.801988 66.0372 0.5 65.6014 0.5 65.1236V19.8765C0.5 19.3983 0.802171 18.9629 1.27725 18.755ZM44.5 2.62778L5.03828 19.8763L16.4774 24.8763C16.5499 24.8264 16.6263 24.7802 16.7103 24.7435L55.9039 7.61239L44.5 2.62778ZM59.0096 9.0202L19.6053 26.2436L27.6758 29.7713L67.0638 12.5548L59.0096 9.0202ZM18.6834 28.6057V41.6456L26.2218 44.9406V31.9008L18.6834 28.6057ZM3.25037 64.3424L43.1248 81.771V39.289L33.6135 35.1316C32.9296 34.8326 32.6428 34.0884 32.973 33.469C33.3033 32.8499 34.1252 32.5899 34.8094 32.8891L44.5 37.125L48.3131 35.4582C48.9972 35.1588 49.8192 35.4188 50.1494 36.0381C50.4797 36.6573 50.1929 37.4017 49.509 37.7007L45.8752 39.289V81.771L85.7496 64.342V21.86L55.3856 35.1321C55.1929 35.2164 54.9892 35.2563 54.7888 35.2563C54.2776 35.2563 53.7865 34.997 53.5494 34.5522C53.2192 33.933 53.506 33.1886 54.1899 32.8896L83.9617 19.8763L70.3006 13.905L28.9912 31.9614C28.9852 31.969 28.9784 31.9758 28.9722 31.9833V46.9245C28.9722 47.353 28.7288 47.7513 28.328 47.9792C28.1054 48.1057 27.8515 48.1696 27.5968 48.1696C27.3929 48.1696 27.1885 48.1286 26.9991 48.0458L16.7103 43.5486C16.235 43.3409 15.933 42.9053 15.933 42.4273V27.4038L3.25037 21.8602V64.3424Z" fill="black"/>
<path d="M73.2543 58.813L78.8513 56.1111C79.4636 55.8153 80.1989 56.0722 80.4944 56.6842C80.7899 57.2961 80.5333 58.0318 79.9213 58.3273L74.3243 61.0292C74.1519 61.1125 73.9696 61.1519 73.7903 61.1519C73.3329 61.1519 72.8935 60.8957 72.6814 60.4561C72.3858 59.844 72.6424 59.1087 73.2543 58.813Z" fill="black"/>
<path d="M68.1032 55.46L78.8436 50.275C79.4557 49.9795 80.1912 50.2361 80.4867 50.8483C80.782 51.4602 80.5254 52.1959 79.9134 52.4913L69.1731 57.6764C69.0007 57.7595 68.8184 57.7991 68.6391 57.7991C68.1817 57.7991 67.7423 57.5428 67.5302 57.1033C67.2347 56.491 67.4913 55.7554 68.1032 55.46Z" fill="black"/>
</g>
<defs>
<clipPath id="clip0_102_1193">
<rect width="88" height="84" fill="white" transform="matrix(-1 0 0 1 88.5 0)"/>
</clipPath>
</defs>
</svg>
