<svg id="layer_1" enable-background="new 0 0 32 32" viewBox="0 0 32 32" xmlns="http://www.w3.org/2000/svg"><path d="m3 24.3398438c.5527344 0 1-.4472656 1-1v-.9998779-14.8399659c0-.5512695.4482422-1 1-1h15.8398438c.5527344 0 1-.4477539 1-1s-.4472656-1-1-1h-15.8398438c-1.6542969 0-3 1.3457031-3 3v15.8398438c0 .5527343.4472656 1 1 1z"/><path d="m30 7.5c0-1.1061401-.6084595-2.0635376-1.50177-2.5837402l1.2078247-1.2077637c.390625-.390625.390625-1.0234375 0-1.4140625s-1.0234375-.390625-1.4140625 0l-25.9980469 25.9975586c-.390625.390625-.390625 1.0234375 0 1.4140625.1953125.1953125.4511719.2929688.7070312.2929688s.5117188-.0976562.7070312-.2929688l2.2061158-2.2060547h21.0858765c1.6542969 0 3-1.3457031 3-3zm-2 17c0 .5517578-.4482422 1-1 1h-19.0858765l7.3146362-7.3144531 2.5632324 3.6201172c.1748047.2480469.453125.4042969.7558594.4228516.2998047.0126953.5986328-.1015625.8017578-.3251953l3.0546875-3.3759766 2.9853516 4.1289062c.1953125.2705078.5009766.4140625.8115234.4140625.203125 0 .4082031-.0615234.5849609-.1894531.4472656-.3242188.5478516-.9492188.2246094-1.3964844l-3.7099609-5.1303711c-.1767578-.2446289-.4550781-.3964844-.7568359-.4125977-.2958984-.012207-.59375.1044922-.7958984.3286133l-3.0371094 3.3647461-2.0463257-2.8850708 2.6403198-2.6402588c.597168.5880127 1.4112549.9403687 2.2849121.9403687 1.7919922 0 3.25-1.4580078 3.25-3.25 0-.8752441-.3532104-1.6878662-.9435425-2.2816772l3.0181885-3.0181275h.0855103c.5517578 0 1 .4487305 1 1zm-5.5271606-13.5584717c.2231445.2266846.3670044.5259399.3670044.8582764 0 .6894531-.5605469 1.25-1.25 1.25-.3317261 0-.6324463-.1422119-.8621216-.3631592z"/><path d="m12.3164062 11.3701172c-.3291016.0043945-.6357422.1708984-.8183594.4448242l-3.2900391 4.9296875c-.2687988.402832-.1903687.9179077.1389771 1.2483521.0463257.0464478.081665.1010132.1383667.138855.1699219.1132812.3632812.1679688.5537109.1679688.3232422 0 .6396484-.15625.8330078-.4453125l2.5029298-3.7509767c.3408203.2788086.8359375.3105469 1.2128906.0424805.4501953-.3188477.5576172-.9428711.2382812-1.3935547l-.098938-.1397095-.5807495-.8202515c-.1904296-.2690429-.5009765-.4238281-.8300781-.4223632z"/></svg>