<svg width="8" height="12" viewBox="0 0 8 12" fill="none" xmlns="http://www.w3.org/2000/svg">
<path d="M6.85504 3.70205L4.06504 6.42005L6.85504 9.10205L5.07304 10.8481L1.11304 6.87005V5.91605L5.07304 1.95605L6.85504 3.70205Z" fill="#F3762B"/>
<path d="M7.20394 4.0602C7.30037 3.96626 7.35484 3.8374 7.35504 3.70277C7.35523 3.56815 7.30113 3.43913 7.20496 3.34491L5.42296 1.59891C5.22714 1.40705 4.91334 1.40865 4.71948 1.6025L0.759484 5.5625C0.665716 5.65627 0.613037 5.78345 0.613037 5.91605V6.87005C0.613037 7.00227 0.665405 7.1291 0.758683 7.22281L4.71868 11.2008C4.91241 11.3954 5.22683 11.3974 5.42296 11.2052L7.20496 9.4592C7.30154 9.36457 7.35568 9.23487 7.35503 9.09967C7.35439 8.96447 7.29902 8.83529 7.20155 8.74159L4.78403 6.41766L7.20394 4.0602Z" stroke="#902B26" stroke-opacity="0.3" stroke-linejoin="round"/>
</svg>
