<svg width="128" height="128" viewBox="0 0 128 128" fill="none" xmlns="http://www.w3.org/2000/svg">
<path d="M18.5192 64.9634C19.0639 29.4538 58.0083 19.268 83.6081 44.5936C78.7223 50.4249 75.1656 52.2659 69.4465 48.258C49.0212 33.944 29.6704 47.1057 30.7746 64.9634C32.1362 86.9849 53.9234 99.9226 87.149 68.8172C89.8493 66.2892 94.2298 62.7613 99.6766 63.5871C106.757 64.6606 107.03 69.5513 101.038 71.5699C97.7702 72.671 87.4779 81.4225 79.796 89.1871C58.5532 108.181 17.9704 100.744 18.5192 64.9634Z" fill="#902B26"/>
<path d="M40.851 62.7614C40.8509 26.9764 80.885 14.0388 103.217 36.3356C98.3311 42.167 95.5915 44.043 89.6 41.2903C71.8979 31.9312 53.6511 44.8688 53.6511 62.7614C53.1064 97.7204 108.936 91.114 101.583 64.1377C108.391 66.0646 113.566 77.0753 101.311 89.1872C82.2468 109.557 40.8511 98.5462 40.851 62.7614Z" fill="white"/>
</svg>
