<svg width="235" height="233" viewBox="0 0 235 233" fill="none" xmlns="http://www.w3.org/2000/svg">
<path d="M202 232.5H33C14.7746 232.5 0 217.778 0 199.553V32.947C0 14.7216 14.7746 0 33 0H202C220.225 0 235 14.7216 235 32.947V199.553C235 217.778 220.225 232.5 202 232.5Z" fill="#F3762B"/>
<path d="M34.0001 118C35 53.5 106.5 34.9986 153.499 81C144.529 91.5922 137.999 94.9361 127.5 87.6561C89.9999 61.6561 54.473 85.5632 56.5002 118C59.0001 158 99.0001 181.5 160 125C164.958 120.408 173 114 183 115.5C196 117.45 196.5 126.333 185.5 130C179.5 132 160.604 147.896 146.501 162C107.5 196.5 32.9925 182.992 34.0001 118Z" fill="#902B26"/>
<path d="M74.9998 114C74.9997 49.0001 148.5 25.5001 189.5 66.0002C180.53 76.5923 175.5 80 164.5 75C132 58 98.5 81.5 98.5 114C97.5 177.5 200 165.5 186.5 116.5C199 120 208.5 140 186 162C151 199 75 179 74.9998 114Z" fill="white"/>
</svg>
