<svg width="212" height="134" viewBox="0 0 212 134" fill="none" xmlns="http://www.w3.org/2000/svg">
<g clip-path="url(#clip0_93_13)">
<path d="M13.876 32.484C11.4413 32.484 9.31467 32.0293 7.496 31.12C5.70667 30.1813 4.31333 28.8613 3.316 27.16C2.348 25.4587 1.864 23.464 1.864 21.176C1.864 18.9173 2.36267 16.9373 3.36 15.236C4.35733 13.5053 5.75067 12.1707 7.54 11.232C9.32933 10.264 11.3973 9.78 13.744 9.78C15.3573 9.78 16.8973 10.0733 18.364 10.66C19.8307 11.2173 21.136 12.0533 22.28 13.168L18.452 17.348C17.22 16.204 15.768 15.632 14.096 15.632C12.512 15.632 11.2213 16.1453 10.224 17.172C9.22667 18.1693 8.728 19.4893 8.728 21.132C8.728 22.7747 9.212 24.1093 10.18 25.136C11.1773 26.1333 12.4827 26.632 14.096 26.632C15.8853 26.632 17.4107 26.0013 18.672 24.74L22.588 28.876C20.1533 31.2813 17.2493 32.484 13.876 32.484ZM49.4228 10.264V32H43.4388L42.9988 29.404C41.1508 31.428 38.7455 32.44 35.7828 32.44C33.7588 32.44 31.9548 31.9707 30.3708 31.032C28.8162 30.064 27.5988 28.7293 26.7188 27.028C25.8388 25.2973 25.3988 23.332 25.3988 21.132C25.3988 18.932 25.8388 16.9813 26.7188 15.28C27.5988 13.5493 28.8162 12.2147 30.3708 11.276C31.9548 10.308 33.7588 9.824 35.7828 9.824C37.2495 9.824 38.5988 10.088 39.8308 10.616C41.0628 11.1147 42.1188 11.848 42.9988 12.816L43.4388 10.264H49.4228ZM37.4108 26.632C38.9362 26.632 40.1828 26.1333 41.1508 25.136C42.1188 24.1093 42.6028 22.7747 42.6028 21.132C42.6028 19.4893 42.1188 18.1693 41.1508 17.172C40.1828 16.1453 38.9362 15.632 37.4108 15.632C35.8855 15.632 34.6388 16.1453 33.6708 17.172C32.7322 18.1987 32.2628 19.5187 32.2628 21.132C32.2628 22.7453 32.7322 24.0653 33.6708 25.092C34.6388 26.1187 35.8855 26.632 37.4108 26.632ZM59.3995 8.108C58.1968 8.108 57.2142 7.756 56.4515 7.052C55.7182 6.348 55.3515 5.45333 55.3515 4.368C55.3515 3.25333 55.7328 2.344 56.4955 1.64C57.2582 0.935998 58.2262 0.583998 59.3995 0.583998C60.5728 0.583998 61.5408 0.935998 62.3035 1.64C63.0662 2.344 63.4475 3.25333 63.4475 4.368C63.4475 5.45333 63.0662 6.348 62.3035 7.052C61.5702 7.756 60.6022 8.108 59.3995 8.108ZM55.9235 10.264H62.8315V32H55.9235V10.264ZM83.4847 20.956L90.7887 32H82.8687L80.9767 28.876L78.8207 25.224L76.6647 28.876L74.6847 32H66.8967L74.2007 20.956L67.4687 10.264H75.2567L77.2807 13.564L78.8647 16.556L80.5367 13.564L82.5607 10.264H90.1727L83.4847 20.956ZM116.891 10.264V32H110.907L110.467 29.404C108.619 31.428 106.213 32.44 103.251 32.44C101.227 32.44 99.4227 31.9707 97.8387 31.032C96.284 30.064 95.0667 28.7293 94.1867 27.028C93.3067 25.2973 92.8667 23.332 92.8667 21.132C92.8667 18.932 93.3067 16.9813 94.1867 15.28C95.0667 13.5493 96.284 12.2147 97.8387 11.276C99.4227 10.308 101.227 9.824 103.251 9.824C104.717 9.824 106.067 10.088 107.299 10.616C108.531 11.1147 109.587 11.848 110.467 12.816L110.907 10.264H116.891ZM104.879 26.632C106.404 26.632 107.651 26.1333 108.619 25.136C109.587 24.1093 110.071 22.7747 110.071 21.132C110.071 19.4893 109.587 18.1693 108.619 17.172C107.651 16.1453 106.404 15.632 104.879 15.632C103.353 15.632 102.107 16.1453 101.139 17.172C100.2 18.1987 99.7307 19.5187 99.7307 21.132C99.7307 22.7453 100.2 24.0653 101.139 25.092C102.107 26.1187 103.353 26.632 104.879 26.632ZM145.496 9.78C147.872 9.78 149.925 10.2347 151.656 11.144C153.386 12.024 154.706 13.2853 155.616 14.928C156.554 16.5413 157.024 18.4333 157.024 20.604C157.024 21.308 156.95 22.1733 156.804 23.2H140.832C141.037 24.3147 141.638 25.224 142.636 25.928C143.633 26.6027 144.909 26.94 146.464 26.94C147.549 26.94 148.605 26.7787 149.632 26.456C150.658 26.1333 151.538 25.6787 152.272 25.092L155.88 28.964C154.648 30.108 153.181 30.988 151.48 31.604C149.808 32.22 148.018 32.528 146.112 32.528C143.589 32.528 141.404 32.0733 139.556 31.164C137.708 30.2253 136.285 28.9053 135.288 27.204C134.29 25.5027 133.792 23.4933 133.792 21.176C133.792 18.9467 134.276 16.9667 135.244 15.236C136.241 13.5053 137.62 12.1707 139.38 11.232C141.14 10.264 143.178 9.78 145.496 9.78ZM145.716 15.236C144.337 15.236 143.208 15.588 142.328 16.292C141.477 16.996 140.993 17.9787 140.876 19.24H150.468C150.38 17.9787 149.91 16.996 149.06 16.292C148.238 15.588 147.124 15.236 145.716 15.236ZM13.876 83.484C11.4413 83.484 9.31467 83.0293 7.496 82.12C5.70667 81.1813 4.31333 79.8613 3.316 78.16C2.348 76.4587 1.864 74.464 1.864 72.176C1.864 69.9173 2.36267 67.9373 3.36 66.236C4.35733 64.5053 5.75067 63.1707 7.54 62.232C9.32933 61.264 11.3973 60.78 13.744 60.78C15.3573 60.78 16.8973 61.0733 18.364 61.66C19.8307 62.2173 21.136 63.0533 22.28 64.168L18.452 68.348C17.22 67.204 15.768 66.632 14.096 66.632C12.512 66.632 11.2213 67.1453 10.224 68.172C9.22667 69.1693 8.728 70.4893 8.728 72.132C8.728 73.7747 9.212 75.1093 10.18 76.136C11.1773 77.1333 12.4827 77.632 14.096 77.632C15.8853 77.632 17.4107 77.0013 18.672 75.74L22.588 79.876C20.1533 82.2813 17.2493 83.484 13.876 83.484ZM37.3228 83.484C34.9175 83.484 32.8055 83.0147 30.9868 82.076C29.1975 81.108 27.8188 79.7733 26.8508 78.072C25.8828 76.3707 25.3988 74.3907 25.3988 72.132C25.3988 69.8733 25.8828 67.8933 26.8508 66.192C27.8188 64.4907 29.1975 63.1707 30.9868 62.232C32.8055 61.264 34.9175 60.78 37.3228 60.78C39.7282 60.78 41.8402 61.264 43.6588 62.232C45.4775 63.1707 46.8708 64.4907 47.8388 66.192C48.8068 67.8933 49.2908 69.8733 49.2908 72.132C49.2908 74.3907 48.8068 76.3707 47.8388 78.072C46.8708 79.7733 45.4775 81.108 43.6588 82.076C41.8402 83.0147 39.7282 83.484 37.3228 83.484ZM37.3228 77.632C38.8482 77.632 40.0802 77.1187 41.0188 76.092C41.9575 75.0653 42.4268 73.7453 42.4268 72.132C42.4268 70.5187 41.9575 69.1987 41.0188 68.172C40.0802 67.1453 38.8482 66.632 37.3228 66.632C35.8268 66.632 34.6095 67.1453 33.6708 68.172C32.7322 69.1987 32.2628 70.5187 32.2628 72.132C32.2628 73.7453 32.7322 75.0653 33.6708 76.092C34.6095 77.1187 35.8268 77.632 37.3228 77.632ZM81.0795 60.78C83.8368 60.78 86.0075 61.5867 87.5915 63.2C89.1755 64.8133 89.9675 67.028 89.9675 69.844V83H83.0595V70.724C83.0595 69.4333 82.7515 68.436 82.1355 67.732C81.5488 66.9987 80.7128 66.632 79.6275 66.632C78.4248 66.632 77.4715 67.0427 76.7675 67.864C76.0635 68.6853 75.7115 69.7707 75.7115 71.12V83H68.8475V70.724C68.8475 69.4333 68.5541 68.436 67.9675 67.732C67.3808 66.9987 66.5448 66.632 65.4595 66.632C64.2568 66.632 63.2888 67.0427 62.5555 67.864C61.8515 68.6853 61.4995 69.7707 61.4995 71.12V83H54.5915V61.264H60.5755L60.9715 63.684C61.7341 62.7453 62.6435 62.0267 63.6995 61.528C64.7848 61.0293 65.9435 60.78 67.1755 60.78C68.5835 60.78 69.8448 61.088 70.9595 61.704C72.0741 62.2907 72.9541 63.112 73.5995 64.168C75.3595 61.9093 77.8528 60.78 81.0795 60.78ZM119.008 61.264V83H113.024L112.584 80.404C110.736 82.428 108.331 83.44 105.368 83.44C103.344 83.44 101.54 82.9707 99.9562 82.032C98.4015 81.064 97.1842 79.7293 96.3042 78.028C95.4242 76.2973 94.9842 74.332 94.9842 72.132C94.9842 69.932 95.4242 67.9813 96.3042 66.28C97.1842 64.5493 98.4015 63.2147 99.9562 62.276C101.54 61.308 103.344 60.824 105.368 60.824C106.835 60.824 108.184 61.088 109.416 61.616C110.648 62.1147 111.704 62.848 112.584 63.816L113.024 61.264H119.008ZM106.996 77.632C108.521 77.632 109.768 77.1333 110.736 76.136C111.704 75.1093 112.188 73.7747 112.188 72.132C112.188 70.4893 111.704 69.1693 110.736 68.172C109.768 67.1453 108.521 66.632 106.996 66.632C105.471 66.632 104.224 67.1453 103.256 68.172C102.317 69.1987 101.848 70.5187 101.848 72.132C101.848 73.7453 102.317 75.0653 103.256 76.092C104.224 77.1187 105.471 77.632 106.996 77.632ZM138.929 60.78C141.627 60.78 143.769 61.66 145.353 63.42C146.966 65.18 147.773 67.6147 147.773 70.724V83H140.865V71.12C140.865 69.712 140.513 68.612 139.809 67.82C139.105 67.028 138.137 66.632 136.905 66.632C135.555 66.632 134.47 67.0867 133.649 67.996C132.827 68.9053 132.417 70.0933 132.417 71.56V83H125.509V61.264H131.493L131.933 63.816C132.783 62.848 133.795 62.1 134.969 61.572C136.171 61.044 137.491 60.78 138.929 60.78ZM176.82 52.2V83H170.836L170.396 80.404C168.548 82.428 166.143 83.44 163.18 83.44C161.156 83.44 159.352 82.9707 157.768 82.032C156.213 81.064 154.996 79.7293 154.116 78.028C153.236 76.2973 152.796 74.332 152.796 72.132C152.796 69.932 153.236 67.9813 154.116 66.28C154.996 64.5493 156.213 63.2147 157.768 62.276C159.352 61.308 161.156 60.824 163.18 60.824C165.849 60.824 168.093 61.66 169.912 63.332V52.2H176.82ZM164.808 77.632C166.333 77.632 167.58 77.1333 168.548 76.136C169.516 75.1093 170 73.7747 170 72.132C170 70.4893 169.516 69.1693 168.548 68.172C167.58 67.1453 166.333 66.632 164.808 66.632C163.283 66.632 162.036 67.1453 161.068 68.172C160.129 69.1987 159.66 70.5187 159.66 72.132C159.66 73.7453 160.129 75.0653 161.068 76.092C162.036 77.1187 163.283 77.632 164.808 77.632ZM206.156 61.264V83H200.172L199.732 80.404C197.884 82.428 195.478 83.44 192.516 83.44C190.492 83.44 188.688 82.9707 187.104 82.032C185.549 81.064 184.332 79.7293 183.452 78.028C182.572 76.2973 182.132 74.332 182.132 72.132C182.132 69.932 182.572 67.9813 183.452 66.28C184.332 64.5493 185.549 63.2147 187.104 62.276C188.688 61.308 190.492 60.824 192.516 60.824C193.982 60.824 195.332 61.088 196.564 61.616C197.796 62.1147 198.852 62.848 199.732 63.816L200.172 61.264H206.156ZM194.144 77.632C195.669 77.632 196.916 77.1333 197.884 76.136C198.852 75.1093 199.336 73.7747 199.336 72.132C199.336 70.4893 198.852 69.1693 197.884 68.172C196.916 67.1453 195.669 66.632 194.144 66.632C192.618 66.632 191.372 67.1453 190.404 68.172C189.465 69.1987 188.996 70.5187 188.996 72.132C188.996 73.7453 189.465 75.0653 190.404 76.092C191.372 77.1187 192.618 77.632 194.144 77.632ZM13.788 134.484C11.3827 134.484 9.27067 134.015 7.452 133.076C5.66267 132.108 4.284 130.773 3.316 129.072C2.348 127.371 1.864 125.391 1.864 123.132C1.864 120.873 2.348 118.893 3.316 117.192C4.284 115.491 5.66267 114.171 7.452 113.232C9.27067 112.264 11.3827 111.78 13.788 111.78C16.1933 111.78 18.3053 112.264 20.124 113.232C21.9427 114.171 23.336 115.491 24.304 117.192C25.272 118.893 25.756 120.873 25.756 123.132C25.756 125.391 25.272 127.371 24.304 129.072C23.336 130.773 21.9427 132.108 20.124 133.076C18.3053 134.015 16.1933 134.484 13.788 134.484ZM13.788 128.632C15.3133 128.632 16.5453 128.119 17.484 127.092C18.4227 126.065 18.892 124.745 18.892 123.132C18.892 121.519 18.4227 120.199 17.484 119.172C16.5453 118.145 15.3133 117.632 13.788 117.632C12.292 117.632 11.0747 118.145 10.136 119.172C9.19733 120.199 8.728 121.519 8.728 123.132C8.728 124.745 9.19733 126.065 10.136 127.092C11.0747 128.119 12.292 128.632 13.788 128.632ZM44.4766 111.78C47.1753 111.78 49.3166 112.66 50.9006 114.42C52.514 116.18 53.3206 118.615 53.3206 121.724V134H46.4126V122.12C46.4126 120.712 46.0606 119.612 45.3566 118.82C44.6526 118.028 43.6846 117.632 42.4526 117.632C41.1033 117.632 40.018 118.087 39.1966 118.996C38.3753 119.905 37.9646 121.093 37.9646 122.56V134H31.0566V112.264H37.0406L37.4806 114.816C38.3313 113.848 39.3433 113.1 40.5166 112.572C41.7193 112.044 43.0393 111.78 44.4766 111.78ZM59.5758 103.2H66.4838V134H59.5758V103.2ZM76.489 110.108C75.2864 110.108 74.3037 109.756 73.541 109.052C72.8077 108.348 72.441 107.453 72.441 106.368C72.441 105.253 72.8224 104.344 73.585 103.64C74.3477 102.936 75.3157 102.584 76.489 102.584C77.6624 102.584 78.6304 102.936 79.393 103.64C80.1557 104.344 80.537 105.253 80.537 106.368C80.537 107.453 80.1557 108.348 79.393 109.052C78.6597 109.756 77.6917 110.108 76.489 110.108ZM73.013 112.264H79.921V134H73.013V112.264ZM99.8702 111.78C102.569 111.78 104.71 112.66 106.294 114.42C107.908 116.18 108.714 118.615 108.714 121.724V134H101.806V122.12C101.806 120.712 101.454 119.612 100.75 118.82C100.046 118.028 99.0782 117.632 97.8462 117.632C96.4969 117.632 95.4116 118.087 94.5902 118.996C93.7689 119.905 93.3582 121.093 93.3582 122.56V134H86.4502V112.264H92.4342L92.8742 114.816C93.7249 113.848 94.7369 113.1 95.9102 112.572C97.1129 112.044 98.4329 111.78 99.8702 111.78ZM125.441 111.78C127.817 111.78 129.871 112.235 131.601 113.144C133.332 114.024 134.652 115.285 135.561 116.928C136.5 118.541 136.969 120.433 136.969 122.604C136.969 123.308 136.896 124.173 136.749 125.2H120.777C120.983 126.315 121.584 127.224 122.581 127.928C123.579 128.603 124.855 128.94 126.409 128.94C127.495 128.94 128.551 128.779 129.577 128.456C130.604 128.133 131.484 127.679 132.217 127.092L135.825 130.964C134.593 132.108 133.127 132.988 131.425 133.604C129.753 134.22 127.964 134.528 126.057 134.528C123.535 134.528 121.349 134.073 119.501 133.164C117.653 132.225 116.231 130.905 115.233 129.204C114.236 127.503 113.737 125.493 113.737 123.176C113.737 120.947 114.221 118.967 115.189 117.236C116.187 115.505 117.565 114.171 119.325 113.232C121.085 112.264 123.124 111.78 125.441 111.78ZM125.661 117.236C124.283 117.236 123.153 117.588 122.273 118.292C121.423 118.996 120.939 119.979 120.821 121.24H130.413C130.325 119.979 129.856 118.996 129.005 118.292C128.184 117.588 127.069 117.236 125.661 117.236Z" fill="white"/>
</g>
<defs>
<clipPath id="clip0_93_13">
<rect width="212" height="134" fill="white"/>
</clipPath>
</defs>
</svg>
